<svg width="32" height="32" viewBox="0 0 32 32" fill="none" xmlns="http://www.w3.org/2000/svg">
<circle cx="16" cy="16" r="14" fill="#51DF78"/>
<path fill-rule="evenodd" clip-rule="evenodd" d="M10.9462 14.2688L10.9571 14.2501C10.3355 12.7946 9.97438 11.4404 10.9746 10.6595C11.4949 10.2817 12.2271 9.80587 12.2656 9.84436L12.4542 9.82448C12.5909 9.79334 12.7335 9.84028 12.8248 9.94654C12.8608 9.971 12.8901 10.0041 12.91 10.0429L12.9379 10.08L14.6834 13.2296L13.3084 14.8185C13.7503 15.7346 14.5342 16.6263 15.2639 17.3684C16.0046 18.0962 16.8937 18.8767 17.8071 19.3173L19.396 17.9422L22.5456 19.6878L22.5827 19.7157C22.6214 19.7356 22.6546 19.7649 22.679 19.8009C22.7853 19.8922 22.8322 20.0348 22.8011 20.1715L22.7812 20.3601C22.8197 20.3986 22.3439 21.1308 21.966 21.651C21.1851 22.6513 19.831 22.2902 18.3755 21.6686L18.3568 21.6795C17.2402 21.1835 15.7607 20.1942 14.1334 18.5883C14.1333 18.5884 14.1332 18.5885 14.133 18.5886C14.1196 18.5751 14.1062 18.5616 14.0928 18.5482C14.0743 18.5298 14.0556 18.5112 14.037 18.4926C14.0371 18.4925 14.0372 18.4923 14.0374 18.4922C12.4315 16.8649 11.4422 15.3853 10.9462 14.2688Z" fill="white"/>
<path d="M10.9571 14.2501L11.2258 14.4069L11.3047 14.2718L11.2432 14.1279L10.9571 14.2501ZM10.9462 14.2688L10.6775 14.112L10.5973 14.2495L10.6619 14.3951L10.9462 14.2688ZM10.9746 10.6595L10.7917 10.4077L10.7832 10.4143L10.9746 10.6595ZM12.2656 9.84436L12.0454 10.0642L12.1504 10.1693L12.2982 10.1538L12.2656 9.84436ZM12.4542 9.82448L12.4868 10.1339L12.5052 10.1319L12.5232 10.1278L12.4542 9.82448ZM12.8248 9.94654L12.5888 10.1493L12.6158 10.1806L12.6499 10.2039L12.8248 9.94654ZM12.91 10.0429L12.6332 10.1849L12.6453 10.2086L12.6613 10.2298L12.91 10.0429ZM12.9379 10.08L13.21 9.92918L13.1995 9.91033L13.1866 9.89309L12.9379 10.08ZM14.6834 13.2296L14.9187 13.4332L15.0609 13.2689L14.9556 13.0788L14.6834 13.2296ZM13.3084 14.8185L13.0731 14.6149L12.9393 14.7695L13.0282 14.9537L13.3084 14.8185ZM15.2639 17.3684L15.042 17.5866L15.0458 17.5903L15.2639 17.3684ZM17.8071 19.3173L17.6719 19.5975L17.856 19.6864L18.0107 19.5526L17.8071 19.3173ZM19.396 17.9422L19.5468 17.6701L19.3567 17.5648L19.1924 17.707L19.396 17.9422ZM22.5456 19.6878L22.7325 19.4391L22.7153 19.4262L22.6964 19.4157L22.5456 19.6878ZM22.5827 19.7157L22.3958 19.9644L22.417 19.9804L22.4406 19.9925L22.5827 19.7157ZM22.679 19.8009L22.4217 19.9757L22.4449 20.0099L22.4763 20.0369L22.679 19.8009ZM22.8011 20.1715L22.4977 20.1025L22.4936 20.1205L22.4917 20.1389L22.8011 20.1715ZM22.7812 20.3601L22.4718 20.3275L22.4562 20.4753L22.5614 20.5803L22.7812 20.3601ZM21.966 21.651L22.2114 21.8426L22.2178 21.8339L21.966 21.651ZM18.3755 21.6686L18.4977 21.3825L18.3538 21.321L18.2187 21.3999L18.3755 21.6686ZM18.3568 21.6795L18.2305 21.9638L18.3761 22.0284L18.5136 21.9482L18.3568 21.6795ZM14.1334 18.5883L14.3519 18.3669L14.1587 18.1762L13.9436 18.3418L14.1334 18.5883ZM14.133 18.5886L13.9129 18.8084L14.1056 19.0014L14.3222 18.8356L14.133 18.5886ZM14.0928 18.5482L14.3136 18.3289L14.3119 18.3273L14.0928 18.5482ZM14.037 18.4926L13.7898 18.3037L13.6243 18.5203L13.8172 18.7128L14.037 18.4926ZM14.0374 18.4922L14.2838 18.682L14.4495 18.4669L14.2588 18.2736L14.0374 18.4922ZM10.6884 14.0933L10.6775 14.112L11.215 14.4256L11.2258 14.4069L10.6884 14.0933ZM10.7832 10.4143C10.1802 10.8851 9.9993 11.5325 10.0473 12.2234C10.0941 12.8973 10.3586 13.6407 10.671 14.3723L11.2432 14.1279C10.934 13.4039 10.7071 12.7426 10.668 12.1803C10.6301 11.635 10.7688 11.2149 11.1661 10.9048L10.7832 10.4143ZM12.4857 9.62452C12.4115 9.55024 12.3256 9.53561 12.2865 9.53226C12.2443 9.52864 12.2098 9.53402 12.1916 9.53752C12.1542 9.54473 12.122 9.557 12.1031 9.56471C12.0615 9.58163 12.0152 9.60542 11.9711 9.62963C11.88 9.67963 11.7619 9.75159 11.6334 9.83357C11.3751 9.99844 11.0568 10.2154 10.7918 10.4078L11.1575 10.9113C11.4128 10.7259 11.7207 10.516 11.9682 10.3581C12.0926 10.2787 12.1973 10.2153 12.2705 10.1751C12.3086 10.1542 12.3299 10.1442 12.3378 10.141C12.3435 10.1386 12.3315 10.1442 12.3093 10.1485C12.2987 10.1506 12.2706 10.1554 12.2334 10.1522C12.1994 10.1493 12.1172 10.1361 12.0454 10.0642L12.4857 9.62452ZM12.4215 9.51508L12.233 9.53496L12.2982 10.1538L12.4868 10.1339L12.4215 9.51508ZM13.0607 9.74377C12.8941 9.5499 12.6341 9.46443 12.3851 9.52113L12.5232 10.1278C12.5477 10.1222 12.5728 10.1307 12.5888 10.1493L13.0607 9.74377ZM13.1868 9.90086C13.1431 9.81577 13.0788 9.74298 12.9996 9.6892L12.6499 10.2039C12.6428 10.199 12.6371 10.1925 12.6332 10.1849L13.1868 9.90086ZM13.1866 9.89309L13.1587 9.856L12.6613 10.2298L12.6891 10.2669L13.1866 9.89309ZM14.9556 13.0788L13.21 9.92918L12.6657 10.2308L14.4113 13.3804L14.9556 13.0788ZM13.5436 15.0221L14.9187 13.4332L14.4482 13.026L13.0731 14.6149L13.5436 15.0221ZM15.4857 17.1503C14.7594 16.4116 14.0069 15.5504 13.5886 14.6833L13.0282 14.9537C13.4938 15.9188 14.309 16.841 15.0421 17.5865L15.4857 17.1503ZM15.0458 17.5903C15.7901 18.3215 16.7097 19.1333 17.6719 19.5975L17.9422 19.0371C17.0778 18.6201 16.2192 17.8708 15.4819 17.1465L15.0458 17.5903ZM18.0107 19.5526L19.5996 18.1775L19.1924 17.707L17.6035 19.0821L18.0107 19.5526ZM19.2452 18.2144L22.3948 19.96L22.6964 19.4157L19.5468 17.6701L19.2452 18.2144ZM22.3587 19.9366L22.3958 19.9644L22.7696 19.467L22.7325 19.4391L22.3587 19.9366ZM22.4406 19.9925C22.4331 19.9886 22.4265 19.9829 22.4217 19.9757L22.9364 19.6261C22.8826 19.5469 22.8098 19.4826 22.7247 19.4389L22.4406 19.9925ZM22.4763 20.0369C22.4949 20.0529 22.5033 20.078 22.4977 20.1025L23.1044 20.2406C23.1612 19.9916 23.0757 19.7315 22.8818 19.5649L22.4763 20.0369ZM22.4917 20.1389L22.4718 20.3275L23.0906 20.3927L23.1105 20.2041L22.4917 20.1389ZM22.5614 20.5803C22.4895 20.5085 22.4763 20.4263 22.4734 20.3923C22.4702 20.3551 22.475 20.327 22.4771 20.3164C22.4813 20.2942 22.487 20.2822 22.4846 20.2879C22.4814 20.2958 22.4714 20.3171 22.4505 20.3552C22.4103 20.4284 22.3469 20.5331 22.2675 20.6575C22.1096 20.905 21.8997 21.2129 21.7143 21.4682L22.2178 21.8339C22.4102 21.5689 22.6271 21.2506 22.792 20.9923C22.874 20.8638 22.9459 20.7457 22.9959 20.6546C23.0202 20.6105 23.0439 20.5642 23.0609 20.5226C23.0686 20.5037 23.0808 20.4715 23.0881 20.4341C23.0916 20.4159 23.0969 20.3814 23.0933 20.3392C23.09 20.3001 23.0753 20.2142 23.0011 20.14L22.5614 20.5803ZM21.7208 21.4596C21.4107 21.8569 20.9906 21.9955 20.4453 21.9577C19.883 21.9186 19.2216 21.6917 18.4977 21.3825L18.2533 21.9547C18.9848 22.2671 19.7283 22.5316 20.4022 22.5784C21.0931 22.6264 21.7405 22.4455 22.2113 21.8425L21.7208 21.4596ZM18.2187 21.3999L18.2 21.4107L18.5136 21.9482L18.5323 21.9373L18.2187 21.3999ZM18.4831 21.3951C17.409 20.9181 15.9597 19.9535 14.3519 18.3669L13.9149 18.8097C15.5616 20.4349 17.0715 21.449 18.2305 21.9638L18.4831 21.3951ZM14.3222 18.8356C14.3215 18.8361 14.3227 18.8352 14.3232 18.8348L13.9436 18.3418L13.9439 18.3416L14.3222 18.8356ZM13.8721 18.7675C13.8857 18.7811 13.8992 18.7947 13.9129 18.8084L14.3532 18.3688C14.34 18.3555 14.3267 18.3422 14.3135 18.3289L13.8721 18.7675ZM14.3119 18.3273C14.2936 18.3091 14.2752 18.2908 14.2568 18.2725L13.8172 18.7128C13.8361 18.7317 13.8549 18.7504 13.8738 18.7691L14.3119 18.3273ZM14.2842 18.6816L14.2838 18.682L13.7909 18.3023C13.7905 18.3028 13.7902 18.3033 13.7898 18.3037L14.2842 18.6816ZM10.6619 14.3951C11.1767 15.5541 12.1908 17.064 13.8159 18.7107L14.2588 18.2736C12.6721 16.6659 11.7076 15.2166 11.2306 14.1425L10.6619 14.3951Z" fill="white"/>
</svg>
